<svg xmlns="http://www.w3.org/2000/svg" version="1.1" xmlns:xlink="http://www.w3.org/1999/xlink" xmlns:svgjs="http://svgjs.dev/svgjs" viewBox="0 0 15.303818771146851 3.925379524011081"><g transform="matrix(1,0,0,1,0.6157137803409114,0.6157137803409116)"><rect width="15.303818771146851" height="15.303818771146851" x="-0.6157137803409114" y="-6.304933403908796" fill="#ffffff"></rect><g><path d=" M 1.1545508414268248 0.44480183170547694 C 1.141013394374919 0.44480183170547694 1.1197402632933526 0.4564053577499677 1.092665369189541 0.4757445678241189 C 0.8915375844183688 0.6227225643876677 0.3790485174533629 1.270586101871732 0.3790485174533629 1.585815226080396 C 0.3790485174533629 1.6128901201842076 0.4003216485349292 1.6302954092509436 0.41772693760166524 1.6302954092509436 C 0.42739654263874083 1.6302954092509436 0.43126438465357103 1.6244936462286983 0.43126438465357103 1.6128901201842076 C 0.43126438465357103 1.274453943886562 0.9650265827001433 0.628524327409913 1.1371455523600886 0.5047533829353456 C 1.1642204464639003 0.4854141728611945 1.1796918145232214 0.47767848883153396 1.1796918145232214 0.4660749627870433 C 1.1796918145232214 0.4544714367425525 1.1680882884787305 0.44480183170547694 1.1545508414268248 0.44480183170547694 M 1.6979826445104726 0.5859780652467805 C 1.6979826445104726 0.9456873726259922 1.32280196907194 1.1429473153823342 1.059788712063484 1.1429473153823342 C 0.9050750314702747 1.1429473153823342 0.8431895592329909 1.1100706582562772 0.8335199541959154 1.1100706582562772 C 0.8257842701662549 1.1100706582562772 0.8180485861365944 1.1197402632933526 0.8180485861365944 1.1294098683304283 C 0.8180485861365944 1.141013394374919 0.9166785575147653 1.1796918145232214 1.0559208700486538 1.1796918145232214 C 1.3692160732499028 1.1796918145232214 1.7501985117106806 0.9650265827001434 1.7501985117106806 0.5840441442393653 C 1.7501985117106806 0.33843617629764555 1.5258636748505272 0.1759868116747758 1.0945992901969561 0.1759868116747758 C 0.5086212249501757 0.1759868116747758 0 0.4815463308463642 0 0.8025772180772736 C 0 0.9572908986704829 0.10829957641524654 1.0307798969522572 0.22820267887498377 1.0307798969522572 C 0.3229648082383245 1.0307798969522572 0.38871812249043847 0.9843657927742946 0.38871812249043847 0.9708283457223887 C 0.38871812249043847 0.9650265827001434 0.38485028047560826 0.9611587406853132 0.3790485174533629 0.9611587406853132 C 0.3655110704014571 0.9611587406853132 0.31909696622349426 0.9940353978113702 0.24754188894913495 0.9940353978113702 C 0.13344054951164305 0.9940353978113702 0.05414978820762327 0.926348162551841 0.05414978820762327 0.8006432970698585 C 0.05414978820762327 0.5144229879724211 0.5472996450984781 0.22433483686015365 1.0945992901969561 0.22433483686015365 C 1.4871852547022248 0.22433483686015365 1.6979826445104726 0.3674449914088722 1.6979826445104726 0.5859780652467805 M 2.328444670117268 0.8702644533368027 C 2.214343330679776 0.8567270062848968 2.098308070234869 0.760030955914141 2.098308070234869 0.6053172753209317 C 2.098308070234869 0.3790485174533631 2.338114275154344 0.22626875786756884 2.6456077153333473 0.22626875786756884 C 2.8544711841341797 0.22626875786756884 3.059466810920182 0.30362559816417356 3.229651859572712 0.4022555695423444 C 3.119418362150051 0.5917798282690259 2.9647046815568414 0.9534230566556527 2.9647046815568414 1.4369033085094318 C 2.9647046815568414 1.6631720663770007 3.0227223117792947 1.7753394848070774 3.045929363868276 1.7753394848070774 C 3.067202494949843 1.7753394848070774 3.084607784016579 1.7656698797700017 3.10781483610556 1.752132432718096 C 3.4481849334106207 1.5471368059320936 4.229489020406328 0.8006432970698585 4.229489020406328 0.23593836290464432 C 4.229489020406328 0.07348899828177458 4.140528654065232 0 4.128925128020741 0 C 4.123123364998497 0 4.117321601976251 0.005801763022245554 4.117321601976251 0.011603526044490886 C 4.117321601976251 0.025140973096396735 4.175339232198704 0.06188547223728391 4.175339232198704 0.23013659988239898 C 4.175339232198704 0.7697005609512166 3.405638671247488 1.5239297538431122 3.0691364159572574 1.719255775592039 C 3.0691364159572574 1.719255775592039 3.02465623278671 1.6264275672361133 3.02465623278671 1.4504407555613377 C 3.02465623278671 0.9901675557965399 3.171634229350259 0.6227225643876677 3.27026420072843 0.42546262163132575 L 3.3128104628915622 0.45253751573513745 C 3.324413988936053 0.46027319976479786 3.330215751958298 0.4641410417796281 3.3360175149805436 0.4641410417796281 C 3.341819278002789 0.4641410417796281 3.351488883039865 0.4506035947277224 3.351488883039865 0.44480183170547694 C 3.351488883039865 0.4390000686832316 3.3456871200176197 0.43319830566098627 3.3398853569953744 0.4293304636461561 C 3.322480067928638 0.41772693760166524 3.305074778861902 0.4041894905497596 3.285735568787751 0.3925859645052687 C 3.324413988936053 0.3171630452160792 3.35342280404728 0.2746167830529467 3.35342280404728 0.27074894103811653 C 3.35342280404728 0.26107933600104083 3.3437531990102043 0.2533436519713803 3.334083593973129 0.2533436519713803 C 3.3282818309508837 0.2533436519713803 3.2954051738248262 0.29395599312709786 3.2489910696468636 0.3674449914088722 C 3.073004257972088 0.2552775729787955 2.86220686816384 0.17792073268219077 2.6456077153333473 0.17792073268219077 C 2.2897662499689657 0.17792073268219077 2.0383565190050006 0.3539075443569666 2.0383565190050006 0.6053172753209317 C 2.0383565190050006 0.7871058500179526 2.198871962620455 0.8992732684480295 2.3187750650801924 0.8992732684480295 C 2.3361803541469284 0.8992732684480295 2.345849959184004 0.8934715054257841 2.345849959184004 0.8818679793812934 C 2.345849959184004 0.876066216359048 2.3419821171691737 0.8721983743442178 2.328444670117268 0.8702644533368027 M 5.565898314535325 0.3887181224904386 C 5.565898314535325 0.2552775729787955 5.467268343157153 0.17792073268219077 5.287413689467548 0.17792073268219077 C 4.98958985432562 0.17792073268219077 4.682096414146616 0.4196608586090804 4.682096414146616 0.7058811677065178 C 4.682096414146616 1.0481851860189935 5.144303534918829 1.1622865254564854 5.144303534918829 1.5432689639172634 C 5.144303534918829 1.850762404096267 4.800065595598938 2.2201413165125543 4.442290209227141 2.2201413165125543 C 4.1947483202780065 2.2201413165125543 4.061307770766364 2.065427635919345 4.061307770766364 1.8759033771926634 C 4.061307770766364 1.5471368059320936 4.362999447923122 1.324735890079355 4.538986259597897 1.324735890079355 C 4.631814467953823 1.324735890079355 4.689832098176276 1.3808195992943935 4.689832098176276 1.471713886642904 C 4.689832098176276 1.65156854033251 4.550589785642388 1.7637359587625867 4.508043523479255 1.7966126158886437 C 4.49837391844218 1.804348299918304 4.494506076427349 1.8082161419331344 4.494506076427349 1.8159518259627947 C 4.494506076427349 1.82175358898504 4.50224176045701 1.8294892730147005 4.508043523479255 1.8294892730147005 C 4.513845286501501 1.8294892730147005 4.519647049523746 1.8275553520072856 4.527382733553407 1.82175358898504 C 4.571862916723954 1.7888769318589832 4.7362462023542395 1.6631720663770007 4.7362462023542395 1.471713886642904 C 4.7362462023542395 1.3518107841831668 4.658889362057635 1.2783217859013924 4.538986259597897 1.2783217859013924 C 4.3475280798638005 1.2783217859013924 4.0148936665884 1.5200619118282819 4.0148936665884 1.8797712192074938 C 4.0148936665884 2.0925025300231566 4.158003821137119 2.264621499683102 4.436488446204896 2.264621499683102 C 4.817470884665674 2.264621499683102 5.196519402119037 1.8739694561852482 5.196519402119037 1.5432689639172634 C 5.196519402119037 1.139079473367504 4.728510518324579 1.0114406868781063 4.728510518324579 0.7058811677065178 C 4.728510518324579 0.4390000686832316 5.026334353466507 0.22433483686015365 5.287413689467548 0.22433483686015365 C 5.440193449053342 0.22433483686015365 5.519484210357362 0.2842863880900224 5.519484210357362 0.39065204349785376 C 5.519484210357362 0.5376300400614026 5.362836608756737 0.6401278534544038 5.318356425586189 0.676872352595291 C 5.306752899541698 0.6865419576323666 5.3028850575268685 0.6884758786397817 5.3028850575268685 0.6942776416620271 C 5.3028850575268685 0.7000794046842724 5.308686820549114 0.7078150887139328 5.314488583571359 0.7078150887139328 C 5.318356425586189 0.7078150887139328 5.324158188608434 0.7058811677065178 5.3338277936455105 0.7000794046842724 C 5.389911502860548 0.6672027475582154 5.565898314535325 0.5492335661058932 5.565898314535325 0.3887181224904386 M 5.830918203448446 1.4175640984352806 C 5.9024732807228055 1.4175640984352806 5.987565805049071 1.3595464682128273 6.095865381464318 1.241577286760505 C 6.095865381464318 1.241577286760505 6.105534986501393 1.2299737607160144 6.105534986501393 1.2222380766863539 C 6.105534986501393 1.2125684716492784 6.097799302471732 1.2048327876196179 6.086195776427242 1.2048327876196179 C 6.078460092397582 1.2048327876196179 6.068790487360506 1.2164363136641085 6.068790487360506 1.2164363136641085 C 5.96822659497492 1.3286037320941855 5.894737596693146 1.3769517572795633 5.840587808485522 1.3769517572795633 C 5.790305862292729 1.3769517572795633 5.757429205166672 1.3440751001535063 5.757429205166672 1.272520022879147 C 5.757429205166672 1.2048327876196179 5.796107625314974 1.158418683441655 5.796107625314974 1.1468151573971643 C 5.796107625314974 1.1313437893378435 5.782570178263069 1.1216741843007678 5.770966652218577 1.1216741843007678 C 5.753561363151841 1.1216741843007678 5.716816864010955 1.1816257355306365 5.664600996810746 1.2435112077679202 C 5.600781603566047 1.320868048064525 5.471208896069235 1.4427050715316772 5.3899842137578 1.4427050715316772 C 5.359041477639158 1.4427050715316772 5.3397022675650065 1.4272337034723563 5.3397022675650065 1.3866213623166388 C 5.3397022675650065 1.2280398397085992 5.577574551477066 0.9785640297520493 5.790305862292729 0.9785640297520493 C 5.848323492515183 0.9785640297520493 5.863794860574504 1.0172424499003516 5.863794860574504 1.0443173440041633 C 5.863794860574504 1.0636565540783143 5.857993097552258 1.07332615911539 5.857993097552258 1.0829957641524655 C 5.857993097552258 1.090731448182126 5.861860939567088 1.0945992901969563 5.869596623596749 1.0945992901969563 C 5.88120014964124 1.0945992901969563 5.904407201730221 1.0675243960931446 5.904407201730221 1.0327138179596724 C 5.904407201730221 0.9843657927742946 5.863794860574504 0.9360177675889166 5.772900573225993 0.9360177675889166 C 5.5621031834177455 0.9360177675889166 5.2874864003647986 1.1970971035899574 5.2874864003647986 1.3866213623166388 C 5.2874864003647986 1.4523746765687529 5.331966583535347 1.4871852547022248 5.384182450735555 1.4871852547022248 C 5.482812422113725 1.4871852547022248 5.629790418677274 1.3460090211609215 5.705213337966464 1.258982575827241 C 5.705213337966464 1.3518107841831668 5.757429205166672 1.4175640984352806 5.830918203448446 1.4175640984352806 M 6.478754356308871 1.241577286760505 C 6.478754356308871 1.241577286760505 6.488423961345946 1.2299737607160144 6.488423961345946 1.2222380766863539 C 6.488423961345946 1.2125684716492784 6.480688277316286 1.2048327876196179 6.469084751271795 1.2048327876196179 C 6.461349067242135 1.2048327876196179 6.451679462205059 1.2164363136641085 6.451679462205059 1.2164363136641085 C 6.451679462205059 1.2164363136641085 6.273758729522868 1.4117623354130353 6.157723469077961 1.4117623354130353 C 6.113243285907413 1.4117623354130353 6.084234470796186 1.3846874413092238 6.084234470796186 1.3402072581386761 C 6.084234470796186 1.2280398397085992 6.231212467359736 1.0462512650115783 6.277626571537699 0.9901675557965399 C 6.2853622555673585 0.9804979507594643 6.287296176574774 0.9727622667298039 6.287296176574774 0.9688944247149736 C 6.287296176574774 0.9572908986704829 6.277626571537699 0.9476212936334074 6.264089124485793 0.9476212936334074 C 6.2331463883671505 0.9476212936334074 6.032018603595978 1.208700629634448 6.032018603595978 1.3402072581386761 C 6.032018603595978 1.4098284144056203 6.078432707773941 1.4523746765687529 6.144186022026055 1.4523746765687529 C 6.293097939597019 1.4523746765687529 6.478754356308871 1.241577286760505 6.478754356308871 1.241577286760505 M 6.438142015153153 0.6807401946101213 C 6.411067121049341 0.6807401946101213 6.380124384930699 0.7232864567732538 6.380124384930699 0.7561631138993108 C 6.380124384930699 0.775502323973462 6.393661831982605 0.7851719290105376 6.411067121049341 0.7851719290105376 C 6.442009857167983 0.7851719290105376 6.469084751271795 0.7348899828177445 6.469084751271795 0.7078150887139328 C 6.469084751271795 0.6904097996471968 6.455547304219889 0.6807401946101213 6.438142015153153 0.6807401946101213 M 7.173051828215602 0.2204669948453235 C 7.000932858555657 0.2204669948453235 6.838483493932787 0.3229648082383245 6.838483493932787 0.510555145957591 C 6.838483493932787 0.760030955914141 7.103430671948658 0.9108767944925201 7.403188428098002 0.9592248196778981 C 7.339369034853302 1.0829957641524655 7.3026245357124155 1.2125684716492784 7.3026245357124155 1.3402072581386761 C 7.3026245357124155 1.5916169891026413 7.4670078213427 1.7308593016365297 7.702946184247344 1.7308593016365297 C 7.793840471595855 1.7308593016365297 7.8866686799517804 1.7057183285401332 7.971761204278046 1.6670399083918308 L 7.9002061270036865 1.8488284830888517 L 7.884734758944365 1.8488284830888517 C 7.46313997932787 1.8488284830888517 6.902302887177486 2.121511345134383 6.902302887177486 2.4580136004246134 C 6.902302887177486 2.597255912958502 7.014470305607563 2.693951963329258 7.149844776126621 2.693951963329258 C 7.552100345668965 2.693951963329258 7.778369103536534 2.285894630764668 7.938884547151988 1.8952425872668146 C 8.062655491626556 1.90491219230389 8.21930309322718 1.9474584544670228 8.240576224308747 2.1041060560676472 C 8.242510145316162 2.1176435031195533 8.244444066323577 2.1234452661417986 8.254113671360653 2.1234452661417986 C 8.267651118412559 2.1234452661417986 8.269585039419974 2.1079738980824776 8.269585039419974 2.0867007670009112 C 8.269585039419974 1.9319870864077018 8.107135674797103 1.868167693163003 7.956289836218724 1.852696325103682 L 8.043316281552405 1.6283614882435284 C 8.244444066323577 1.5103923067912064 8.395289904901956 1.3189341270571098 8.395289904901956 1.208700629634448 C 8.395289904901956 1.1603526044490702 8.358545405761069 1.1313437893378435 8.314065222590521 1.1313437893378435 C 8.190294278115953 1.1313437893378435 8.099399990767443 1.342141179146091 7.994968256367027 1.603220515147132 C 7.906007890025932 1.65156854033251 7.805443997640346 1.6844451974585668 7.70874794726959 1.6844451974585668 C 7.492148794439097 1.6844451974585668 7.3587082449274535 1.552938568954339 7.3587082449274535 1.3324715741090156 C 7.3587082449274535 1.2125684716492784 7.397386665075756 1.0868636061672958 7.461206058320455 0.9669605037075586 C 7.5114880045132475 0.9727622667298039 7.559836029698626 0.974696187737219 7.610117975891419 0.974696187737219 C 8.095532148752612 0.974696187737219 8.700849424073544 0.6884758786397817 8.700849424073544 0.34810578133472103 C 8.700849424073544 0.24560796794172002 8.629294346799185 0.1759868116747758 8.493919876280128 0.1759868116747758 C 8.138078410915746 0.1759868116747758 7.652664238054552 0.5124890669650061 7.428329401194398 0.9128107154999352 C 7.142109092096961 0.8702644533368027 6.892633282140411 0.7329560618103294 6.892633282140411 0.5144229879724211 C 6.892633282140411 0.35777538637179673 7.037677357696544 0.27074894103811653 7.176919670230433 0.27074894103811653 C 7.3935188230609254 0.27074894103811653 7.484413110409436 0.4061234115571746 7.501818399476172 0.4061234115571746 C 7.5114880045132475 0.4061234115571746 7.521157609550324 0.40032164853492924 7.521157609550324 0.38485028047560843 C 7.521157609550324 0.36551107040145725 7.385783139031266 0.2204669948453235 7.173051828215602 0.2204669948453235 M 8.495853797287543 0.22433483686015365 C 8.577078479598978 0.22433483686015365 8.646699635865922 0.26881502003070135 8.646699635865922 0.34037009730506074 C 8.646699635865922 0.6614009845359701 8.047184123567234 0.926348162551841 7.619787580928494 0.926348162551841 C 7.575307397757947 0.926348162551841 7.532761135594814 0.924414241544426 7.488280952424266 0.9205463995295957 C 7.710681868277005 0.5472996450984782 8.170955068041803 0.22433483686015365 8.495853797287543 0.22433483686015365 M 7.155646539148866 2.6417360961290495 C 7.041545199711375 2.6417360961290495 6.956452675385109 2.5721149398621055 6.956452675385109 2.4599475214320288 C 6.956452675385109 2.148586239238195 7.496016636453927 1.8933086662593994 7.880866916929535 1.8933086662593994 C 7.724219315328911 2.268489341697932 7.517289767535493 2.6417360961290495 7.155646539148866 2.6417360961290495 M 8.312131301583106 1.1816257355306365 C 8.329536590649843 1.1816257355306365 8.341140116694334 1.191295340567712 8.341140116694334 1.2125684716492784 C 8.341140116694334 1.305396680005204 8.225104856249427 1.454308597576168 8.068457254648802 1.5587403319765842 C 8.151615857967652 1.3440751001535063 8.223170935242011 1.1816257355306365 8.312131301583106 1.1816257355306365 M 9.00836080590252 1.4175640984352806 C 9.079915883176879 1.4175640984352806 9.165008407503144 1.3595464682128273 9.273307983918391 1.241577286760505 C 9.273307983918391 1.241577286760505 9.282977588955466 1.2299737607160144 9.282977588955466 1.2222380766863539 C 9.282977588955466 1.2125684716492784 9.275241904925807 1.2048327876196179 9.263638378881316 1.2048327876196179 C 9.255902694851654 1.2048327876196179 9.246233089814579 1.2164363136641085 9.246233089814579 1.2164363136641085 C 9.145669197428994 1.3286037320941855 9.072180199147219 1.3769517572795633 9.018030410939595 1.3769517572795633 C 8.967748464746803 1.3769517572795633 8.934871807620745 1.3440751001535063 8.934871807620745 1.272520022879147 C 8.934871807620745 1.2048327876196179 8.973550227769048 1.158418683441655 8.973550227769048 1.1468151573971643 C 8.973550227769048 1.1313437893378435 8.960012780717141 1.1216741843007678 8.94840925467265 1.1216741843007678 C 8.931003965605916 1.1216741843007678 8.894259466465028 1.1816257355306365 8.84204359926482 1.2435112077679202 C 8.778224206020122 1.320868048064525 8.648651498523309 1.4427050715316772 8.567426816211873 1.4427050715316772 C 8.536484080093231 1.4427050715316772 8.51714487001908 1.4272337034723563 8.51714487001908 1.3866213623166388 C 8.51714487001908 1.2280398397085992 8.75501715393114 0.9785640297520493 8.967748464746803 0.9785640297520493 C 9.025766094969256 0.9785640297520493 9.041237463028576 1.0172424499003516 9.041237463028576 1.0443173440041633 C 9.041237463028576 1.0636565540783143 9.035435700006332 1.07332615911539 9.035435700006332 1.0829957641524655 C 9.035435700006332 1.090731448182126 9.039303542021162 1.0945992901969563 9.047039226050822 1.0945992901969563 C 9.058642752095313 1.0945992901969563 9.081849804184294 1.0675243960931446 9.081849804184294 1.0327138179596724 C 9.081849804184294 0.9843657927742946 9.041237463028576 0.9360177675889166 8.950343175680066 0.9360177675889166 C 8.739545785871819 0.9360177675889166 8.464929002818872 1.1970971035899574 8.464929002818872 1.3866213623166388 C 8.464929002818872 1.4523746765687529 8.50940918598942 1.4871852547022248 8.561625053189628 1.4871852547022248 C 8.6602550245678 1.4871852547022248 8.807233021131347 1.3460090211609215 8.882655940420538 1.258982575827241 C 8.882655940420538 1.3518107841831668 8.934871807620745 1.4175640984352806 9.00836080590252 1.4175640984352806 M 10.062320370320117 1.241577286760505 C 10.062320370320117 1.241577286760505 10.071989975357193 1.2299737607160144 10.071989975357193 1.2222380766863539 C 10.071989975357193 1.2125684716492784 10.064254291327533 1.2048327876196179 10.052650765283042 1.2048327876196179 C 10.044915081253382 1.2048327876196179 10.035245476216305 1.2164363136641085 10.035245476216305 1.2164363136641085 C 10.035245476216305 1.2164363136641085 9.880531795623096 1.4001588093685446 9.745157325104039 1.4001588093685446 C 9.710346746970567 1.4001588093685446 9.683271852866755 1.3788856782869785 9.683271852866755 1.3440751001535063 C 9.683271852866755 1.257048654819826 9.87086219058602 1.1294098683304283 9.87086219058602 1.026912054937427 C 9.87086219058602 0.9804979507594643 9.836051612452549 0.943753451618577 9.785769666259755 0.943753451618577 C 9.642659511711038 0.943753451618577 9.37191057067292 1.1642204464639003 9.224932574109372 1.3344054951164308 C 9.292619809368901 1.2164363136641085 9.385448017724826 1.0945992901969563 9.45506917399177 1.0153085288929364 C 9.468606621043676 0.9998371608336155 9.474408384065923 0.9940353978113702 9.474408384065923 0.9862997137817097 C 9.474408384065923 0.9766301087446341 9.458937016006601 0.9630926616927282 9.44733348996211 0.9630926616927282 C 9.418324674850883 0.9630926616927282 9.265544915265089 1.173890051500976 9.192055916983316 1.2995949169829586 C 9.151443575827598 1.3692160732499028 9.128236523738616 1.4156301774278657 9.128236523738616 1.4311015454871865 C 9.128236523738616 1.4485068345539227 9.141773970790522 1.4601103605984134 9.155311417842428 1.4601103605984134 C 9.166914943886919 1.4601103605984134 9.174650627916579 1.454308597576168 9.188188074968485 1.4369033085094318 C 9.391249780747073 1.1990310245973725 9.650395195740698 0.9901675557965399 9.774166140215264 0.9901675557965399 C 9.797373192304246 0.9901675557965399 9.814778481370983 1.005638923855861 9.814778481370983 1.026912054937427 C 9.814778481370983 1.1100706582562772 9.625254222644301 1.237709444745675 9.625254222644301 1.3498768631757516 C 9.625254222644301 1.40596057239079 9.66586656380002 1.4446389925390923 9.727752036037302 1.4446389925390923 C 9.886333558645342 1.4446389925390923 10.062320370320117 1.241577286760505 10.062320370320117 1.241577286760505 M 10.632865783699621 1.241577286760505 C 10.632865783699621 1.241577286760505 10.642535388736697 1.2299737607160144 10.642535388736697 1.2222380766863539 C 10.642535388736697 1.2125684716492784 10.63673362571445 1.2048327876196179 10.62513009966996 1.2048327876196179 C 10.615460494632885 1.2048327876196179 10.60579088959581 1.2164363136641085 10.60579088959581 1.2164363136641085 C 10.60579088959581 1.2164363136641085 10.414332709861712 1.4465729135465075 10.195799636023803 1.4465729135465075 C 10.116508874719784 1.4465729135465075 10.064293007519577 1.3982248883611295 10.064293007519577 1.324735890079355 C 10.064293007519577 1.3131323640348644 10.064293007519577 1.2995949169829586 10.06622692852699 1.287991390938468 C 10.228676293149862 1.2493129707901656 10.493623471165732 1.141013394374919 10.493623471165732 1.026912054937427 C 10.493623471165732 0.9785640297520493 10.456878972024844 0.943753451618577 10.396927420794976 0.943753451618577 C 10.249949424231428 0.943753451618577 10.010143219311953 1.139079473367504 10.010143219311953 1.3189341270571098 C 10.010143219311953 1.4291676244797715 10.095235743638218 1.4910530967170552 10.195799636023803 1.4910530967170552 C 10.420134472883959 1.4910530967170552 10.632865783699621 1.241577286760505 10.632865783699621 1.241577286760505 M 10.404663104824637 0.9862997137817097 C 10.43173799892845 0.9862997137817097 10.447209366987769 1.0037050028484458 10.447209366987769 1.0211102919151818 C 10.447209366987769 1.1100706582562772 10.226742372142446 1.208700629634448 10.079764375578897 1.2435112077679202 C 10.131980242779106 1.1120045792636923 10.29249568639456 0.9862997137817097 10.404663104824637 0.9862997137817097 M 10.63283273329178 1.241577286760505 C 10.710189573588384 1.1545508414268248 10.758537598773762 1.0829957641524655 10.760471519781177 1.0791279221376353 C 10.760471519781177 1.1680882884787307 10.830092676048121 1.2357755237382597 10.830092676048121 1.338273337131261 C 10.830092676048121 1.3498768631757516 10.828158755040706 1.3614803892202423 10.82622483403329 1.371149994257318 C 10.772075045825668 1.3808195992943935 10.71599133661063 1.3827535203018086 10.661841548403006 1.3846874413092238 C 10.592220392136062 1.388555283324054 10.555475892995174 1.4078944933982052 10.555475892995174 1.4581764395909982 C 10.555475892995174 1.4987887807467157 10.603823918180552 1.5432689639172634 10.67151115344008 1.5432689639172634 C 10.756603677766346 1.5432689639172634 10.841696202092612 1.48911917570964 10.868771096196424 1.4001588093685446 C 10.955797541530103 1.3788856782869785 11.050559670893444 1.338273337131261 11.133718274212294 1.241577286760505 C 11.133718274212294 1.241577286760505 11.14338787924937 1.2299737607160144 11.14338787924937 1.2222380766863539 C 11.14338787924937 1.2125684716492784 11.13565219521971 1.2048327876196179 11.124048669175219 1.2048327876196179 C 11.116312985145559 1.2048327876196179 11.106643380108483 1.2164363136641085 11.106643380108483 1.2164363136641085 C 11.03702222384154 1.2995949169829586 10.957731462537518 1.3402072581386761 10.876506780226084 1.3595464682128273 C 10.8784407012335 1.353744705190582 10.8784407012335 1.3479429421683364 10.8784407012335 1.3402072581386761 C 10.8784407012335 1.220304155678939 10.808819544966555 1.1545508414268248 10.808819544966555 1.0713922381079748 C 10.808819544966555 0.9940353978113702 10.895845990300236 0.926348162551841 10.895845990300236 0.9050750314702748 C 10.895845990300236 0.891537584418369 10.876506780226084 0.874132295351633 10.861035412166762 0.874132295351633 C 10.841696202092612 0.874132295351633 10.80688562395914 0.9224803205370108 10.774008966833083 0.9824318717668794 C 10.739198388699611 1.0443173440041633 10.679246837469742 1.1352116313526737 10.605757839187968 1.2164363136641085 C 10.605757839187968 1.2164363136641085 10.596088234150892 1.2280398397085992 10.596088234150892 1.2357755237382597 C 10.596088234150892 1.2435112077679202 10.601889997173137 1.2512468917975808 10.613493523217628 1.2512468917975808 C 10.623163128254705 1.2512468917975808 10.63283273329178 1.241577286760505 10.63283273329178 1.241577286760505 M 10.673445074447496 1.504590543768961 C 10.627030970269534 1.504590543768961 10.599956076165721 1.4813834916799795 10.599956076165721 1.454308597576168 C 10.599956076165721 1.4098284144056203 10.692784284521649 1.4272337034723563 10.8146213079888 1.4098284144056203 C 10.789480334892403 1.4678460446280739 10.733396625677365 1.504590543768961 10.673445074447496 1.504590543768961 M 11.92657206230258 1.241577286760505 C 11.92657206230258 1.241577286760505 11.936241667339655 1.2299737607160144 11.936241667339655 1.2222380766863539 C 11.936241667339655 1.2125684716492784 11.93043990431741 1.2048327876196179 11.918836378272918 1.2048327876196179 C 11.909166773235842 1.2048327876196179 11.899497168198767 1.2164363136641085 11.899497168198767 1.2164363136641085 C 11.899497168198767 1.2164363136641085 11.735113882568482 1.4020927303759598 11.611342938093914 1.4020927303759598 C 11.574598438953029 1.4020927303759598 11.557193149886292 1.3866213623166388 11.557193149886292 1.353744705190582 C 11.557193149886292 1.2647843388494866 11.744783487605558 1.1371455523600889 11.744783487605558 1.0423834229967481 C 11.744783487605558 0.9921014768039551 11.713840751486917 0.9650265827001434 11.671294489323783 0.9650265827001434 C 11.559127070893707 0.9650265827001434 11.211021289558985 1.2473790497827504 11.071778977025097 1.4001588093685446 C 11.071778977025097 1.4001588093685446 11.13753229127721 1.2609164968346562 11.178144632432929 1.208700629634448 C 11.423752600374648 1.0172424499003516 11.872422274094955 0.6730045105804607 11.872422274094955 0.5086212249501758 C 11.872422274094955 0.4564053577499677 11.835677774954068 0.4138590955868351 11.773792302716785 0.4138590955868351 C 11.578466280967858 0.4138590955868351 11.350263602092873 0.7406917458399899 11.164607185381023 1.0965332112043713 C 11.087250345084419 1.2454451287753354 10.994422136728492 1.4407711505242622 10.994422136728492 1.4601103605984134 C 10.994422136728492 1.4755817286577342 11.011827425795229 1.48911917570964 11.025364872847135 1.48911917570964 C 11.040836240906456 1.48911917570964 11.05437368795836 1.4736478076503192 11.073712898032513 1.4523746765687529 C 11.232294420640551 1.2821896279162226 11.574598438953029 1.0133746078855213 11.661624884286708 1.0133746078855213 C 11.677096252346029 1.0133746078855213 11.690633699397935 1.023044212922597 11.690633699397935 1.0423834229967481 C 11.690633699397935 1.1197402632933526 11.50304336167867 1.23964336575309 11.50304336167867 1.355678626197997 C 11.50304336167867 1.4117623354130353 11.54172178182697 1.4446389925390923 11.59780549104201 1.4446389925390923 C 11.750585250627804 1.4446389925390923 11.92657206230258 1.241577286760505 11.92657206230258 1.241577286760505 M 11.777660144731614 0.4564053577499677 C 11.806668959842842 0.4564053577499677 11.826008169916992 0.47767848883153396 11.826008169916992 0.5028194619279305 C 11.826008169916992 0.6555992215137247 11.394743785263422 0.9882336347891247 11.195549921499664 1.1448812363897494 C 11.38700810123376 0.775502323973462 11.619078622123576 0.4564053577499677 11.777660144731614 0.4564053577499677" fill="#1f121e" fill-rule="nonzero"></path></g><g></g><g clip-path="url(#SvgjsClipPath1193)"><g clip-path="url(#SvgjsClipPath1190620864bb-3042-4443-8f89-3ba1a190e1d7)"><path d=" M 14.03829387020393 1.0351774352462353 L 13.966704884316377 1.0351774352462353 L 13.966704884316377 0.1677395561378356 C 13.966704884316377 0.1586963792409232 13.963112496281603 0.1500235873260648 13.956718004574327 0.14362909561878814 C 13.950323512867051 0.13723460391151274 13.941650720952193 0.13364221587673897 13.932607544055278 0.13364221587673897 L 12.439228898253337 0.13364221587673897 C 12.430185721356425 0.13364221587673772 12.421512929441567 0.13723460391151146 12.415118437734293 0.14362909561878814 C 12.408723946027013 0.1500235873260648 12.40513155799224 0.1586963792409232 12.40513155799224 0.1677395561378356 L 12.40513155799224 1.0351774352462353 L 12.333542572104687 1.0351774352462353 C 12.324499395207772 1.0351774352462342 12.315826603292917 1.0387698232810079 12.30943211158564 1.0451643149882845 C 12.30303761987836 1.051558806695561 12.299445231843588 1.0602315986104183 12.299445231843588 1.069274775507332 L 12.299445231843588 1.1657039052050062 C 12.299445231843588 1.2407643397616757 12.345114067668408 1.2995475372253773 12.403588691917077 1.2995475372253773 L 13.96855632360657 1.2995475372253773 C 14.026876661247723 1.2995475372253773 14.072699783680058 1.2407643397616757 14.072699783680058 1.1657039052050062 L 14.072699783680058 1.069274775507332 C 14.072700156198357 1.06017788008513 14.06906544079976 1.051457995090677 14.062604054786714 1.0450545587279874 C 14.05614266877367 1.0386511223652948 14.047390393115379 1.03509511039308 14.038293870203892 1.0351774352462353 Z M 12.473326238514435 0.2020297546583288 L 13.898510203794183 0.2020297546583288 L 13.898510203794183 1.0351774352462353 L 13.4027487621925 1.0351774352462353 C 13.366354728382904 1.0352329593678267 13.336676793230241 1.0643625723929575 13.33594266113795 1.1007492434406525 L 13.035893781170667 1.1007492434406525 C 13.035159649078375 1.0643625723929575 13.005481713925713 1.0352329593678267 12.969087680116118 1.0351774352462353 L 12.473326238514435 1.0351774352462353 Z M 14.004196529942835 1.1657424768568865 C 14.004196529942835 1.2033112657870997 13.98529642052209 1.231314285051305 13.968402036999057 1.231314285051305 L 12.403434405309557 1.231314285051305 C 12.386540021786528 1.231314285051305 12.367639912365782 1.2032341224833416 12.367639912365782 1.1657424768568865 L 12.367639912365782 1.1035649740278264 L 12.967737672300348 1.1035649740278264 C 12.96845110925814 1.139945458638493 12.998117765391196 1.16908082283618 13.034505201703018 1.169136782222245 L 13.337331240605595 1.169136782222245 C 13.373718676917418 1.16908082283618 13.403385333050473 1.139945458638493 13.404098770008265 1.1035649740278264 L 14.00419652994283 1.1035649740278264 Z" fill="#25333f" transform="matrix(1,0,0,1,0,0)" fill-rule="nonzero"></path></g></g></g><defs><clipPath id="SvgjsClipPath1193"><path d=" M 12.299445231843588 0.13364221587673897 h 1.772945978621439 v 1.1657510347411237 h -1.772945978621439 Z"></path></clipPath><clipPath id="SvgjsClipPath1190620864bb-3042-4443-8f89-3ba1a190e1d7"><path d=" M 12.299445231843588 0.13364221587673897 L 14.072391210465028 0.13364221587673897 L 14.072391210465028 1.2993932506178627 L 12.299445231843588 1.2993932506178627 Z"></path></clipPath></defs></svg>